<svg width="191" height="86" viewBox="0 0 191 86" fill="none" xmlns="http://www.w3.org/2000/svg">
<g clip-path="url(#clip0_108_7)">
<mask id="mask0_108_7" style="mask-type:luminance" maskUnits="userSpaceOnUse" x="0" y="0" width="191" height="86">
<path d="M190.95 0H0V85.55H190.95V0Z" fill="white"/>
</mask>
<g mask="url(#mask0_108_7)">
<path d="M30.67 76.85C30.32 77.92 29.96 79.03 29.57 80.2C29.18 81.36 28.78 82.58 28.37 83.84H29.26C29.36 83.53 29.45 83.23 29.55 82.93C29.65 82.63 29.74 82.32 29.84 82.02H32.59C32.69 82.33 32.78 82.63 32.88 82.93C32.98 83.23 33.07 83.54 33.17 83.84H34.08L31.8 76.85H30.7H30.67ZM32.37 81.35H30.04C30.14 81.05 30.22 80.77 30.3 80.5C30.38 80.24 30.46 79.98 30.54 79.73C30.61 79.48 30.69 79.24 30.76 79C30.83 78.76 30.91 78.51 30.98 78.26L31.18 77.57H31.21L31.41 78.25C31.57 78.76 31.73 79.27 31.89 79.8C32.05 80.32 32.2 80.84 32.36 81.35M39.49 80.56C39.3 80.34 39.03 80.19 38.69 80.1C38.93 80.01 39.14 79.85 39.31 79.63C39.48 79.4 39.61 79.11 39.7 78.77L40.15 76.87H39.33L38.87 78.65C38.81 78.89 38.73 79.09 38.63 79.23C38.53 79.37 38.43 79.48 38.31 79.56C38.2 79.64 38.08 79.69 37.95 79.71C37.82 79.73 37.71 79.75 37.6 79.75H36.39V76.84H35.52V83.83H36.39V80.45H37.64C37.77 80.45 37.91 80.47 38.05 80.49C38.19 80.52 38.33 80.58 38.45 80.66C38.58 80.74 38.69 80.86 38.8 81.01C38.91 81.16 39 81.35 39.07 81.59L39.67 83.82H40.52L39.9 81.36C39.82 81.03 39.68 80.76 39.49 80.54M47.06 76.85H46.18V83.2H42.91V76.85H42.04V83.81H47.1V85.5H47.78V83.19H47.06V76.85ZM50.23 82.46H50.2V76.85H49.35V83.81H50.21L53.66 78.16H53.68V83.81H54.53V76.85L53.7 76.83L50.23 82.46ZM61.58 77.83C61.36 77.5 61.06 77.23 60.69 77.03C60.32 76.83 59.85 76.73 59.29 76.73C58.73 76.73 58.27 76.83 57.89 77.03C57.51 77.23 57.2 77.49 56.96 77.83C56.72 78.17 56.56 78.56 56.45 79C56.34 79.44 56.29 79.9 56.29 80.39C56.29 80.93 56.34 81.41 56.45 81.84C56.56 82.27 56.73 82.64 56.98 82.95C57.22 83.25 57.53 83.49 57.91 83.66C58.29 83.83 58.75 83.91 59.29 83.91C59.77 83.91 60.18 83.82 60.55 83.64C60.91 83.46 61.22 83.21 61.46 82.9C61.7 82.58 61.88 82.21 62.01 81.77C62.13 81.34 62.19 80.87 62.19 80.36C62.19 79.88 62.14 79.43 62.05 78.99C61.96 78.55 61.8 78.17 61.58 77.84M61.16 81.5C61.08 81.85 60.96 82.15 60.8 82.41C60.64 82.67 60.43 82.87 60.18 83.02C59.93 83.17 59.63 83.24 59.29 83.24C58.54 83.24 58 83 57.68 82.52C57.35 82.04 57.19 81.33 57.19 80.4C57.19 80.02 57.22 79.65 57.28 79.29C57.34 78.93 57.45 78.61 57.61 78.33C57.77 78.05 57.98 77.82 58.25 77.65C58.52 77.48 58.87 77.4 59.29 77.4C59.71 77.4 60.05 77.49 60.31 77.67C60.57 77.85 60.77 78.09 60.91 78.38C61.05 78.67 61.15 78.99 61.2 79.34C61.25 79.69 61.28 80.04 61.28 80.39C61.28 80.78 61.24 81.15 61.16 81.5ZM68.09 79.78H64.83C64.83 79.28 64.83 78.79 64.83 78.31C64.83 77.83 64.83 77.34 64.83 76.84H63.94V83.81H64.83C64.83 83.25 64.83 82.7 64.83 82.14C64.83 81.58 64.83 81.03 64.83 80.47H68.09V83.8H68.98V76.83H68.09V79.77V79.78ZM71.86 80.44H74.72V79.81H71.86V77.51H75.24V76.85H70.99V83.82H75.4V83.16H71.85V80.45L71.86 80.44ZM80.92 77.34C80.73 77.17 80.5 77.04 80.23 76.96C79.97 76.87 79.67 76.83 79.35 76.83H77.07V83.82H77.95V80.95H79.45C79.85 80.95 80.19 80.88 80.46 80.74C80.73 80.6 80.94 80.43 81.1 80.22C81.26 80.01 81.37 79.79 81.44 79.54C81.5 79.3 81.54 79.07 81.54 78.86C81.54 78.53 81.49 78.23 81.38 77.98C81.27 77.73 81.12 77.51 80.93 77.34M80.54 79.56C80.46 79.74 80.36 79.88 80.24 79.99C80.12 80.1 79.97 80.17 79.82 80.22C79.66 80.26 79.5 80.29 79.34 80.29H77.95V77.5H79.3C79.49 77.5 79.67 77.53 79.84 77.58C80.01 77.63 80.15 77.72 80.27 77.83C80.39 77.94 80.49 78.09 80.56 78.27C80.63 78.45 80.66 78.65 80.66 78.89C80.66 79.16 80.62 79.38 80.55 79.56M87.29 79.78H84.03C84.03 79.28 84.03 78.79 84.03 78.31C84.03 77.83 84.03 77.34 84.03 76.84H83.14V83.81H84.03C84.03 83.25 84.03 82.7 84.03 82.14C84.03 81.58 84.03 81.03 84.03 80.47H87.29V83.8H88.18V76.83H87.29V79.77V79.78ZM95.23 77.83C95.01 77.5 94.71 77.23 94.34 77.03C93.97 76.83 93.5 76.73 92.94 76.73C92.38 76.73 91.92 76.83 91.54 77.03C91.16 77.23 90.85 77.49 90.61 77.83C90.38 78.17 90.21 78.56 90.1 79C89.99 79.44 89.94 79.9 89.94 80.39C89.94 80.93 89.99 81.41 90.1 81.84C90.21 82.27 90.38 82.64 90.62 82.95C90.86 83.25 91.17 83.49 91.55 83.66C91.93 83.83 92.39 83.91 92.93 83.91C93.41 83.91 93.82 83.82 94.19 83.64C94.55 83.46 94.86 83.21 95.1 82.9C95.34 82.58 95.52 82.21 95.65 81.77C95.77 81.34 95.83 80.87 95.83 80.36C95.83 79.88 95.78 79.43 95.69 78.99C95.6 78.55 95.44 78.17 95.22 77.84M94.8 81.5C94.72 81.85 94.6 82.15 94.44 82.41C94.28 82.67 94.07 82.87 93.82 83.02C93.57 83.17 93.27 83.24 92.93 83.24C92.18 83.24 91.64 83 91.32 82.52C90.99 82.04 90.83 81.33 90.83 80.4C90.83 80.02 90.86 79.65 90.92 79.29C90.98 78.93 91.09 78.61 91.25 78.33C91.41 78.05 91.62 77.82 91.89 77.65C92.16 77.48 92.51 77.4 92.93 77.4C93.35 77.4 93.69 77.49 93.95 77.67C94.21 77.85 94.41 78.09 94.55 78.38C94.69 78.67 94.79 78.99 94.84 79.34C94.89 79.69 94.92 80.04 94.92 80.39C94.92 80.78 94.88 81.15 94.8 81.5ZM98.46 80.45H101.32V79.82H98.46V77.52H101.85V76.86H97.6V83.83H102.02V83.17H98.47V80.46L98.46 80.45ZM112.42 77.84C112.2 77.51 111.9 77.24 111.53 77.04C111.16 76.84 110.69 76.74 110.13 76.74C109.57 76.74 109.11 76.84 108.73 77.04C108.35 77.24 108.04 77.5 107.8 77.84C107.57 78.18 107.4 78.57 107.29 79.01C107.18 79.45 107.13 79.91 107.13 80.4C107.13 80.94 107.18 81.42 107.29 81.85C107.4 82.28 107.57 82.65 107.81 82.96C108.05 83.26 108.36 83.5 108.74 83.67C109.12 83.84 109.58 83.92 110.12 83.92C110.59 83.92 111.02 83.83 111.38 83.65C111.74 83.47 112.05 83.22 112.29 82.91C112.53 82.59 112.71 82.22 112.84 81.78C112.96 81.35 113.02 80.88 113.02 80.37C113.02 79.89 112.97 79.44 112.88 79C112.79 78.56 112.63 78.18 112.41 77.85M111.99 81.51C111.91 81.86 111.79 82.16 111.63 82.42C111.47 82.68 111.26 82.88 111.01 83.03C110.76 83.18 110.46 83.25 110.12 83.25C109.37 83.25 108.83 83.01 108.51 82.53C108.18 82.05 108.02 81.34 108.02 80.41C108.02 80.03 108.05 79.66 108.11 79.3C108.17 78.94 108.28 78.62 108.44 78.34C108.6 78.06 108.81 77.83 109.08 77.66C109.35 77.49 109.7 77.41 110.12 77.41C110.54 77.41 110.88 77.5 111.14 77.68C111.4 77.86 111.6 78.1 111.74 78.39C111.88 78.68 111.98 79 112.03 79.35C112.08 79.7 112.11 80.05 112.11 80.4C112.11 80.79 112.07 81.16 111.99 81.51ZM118.91 80.31C118.73 80.13 118.49 80 118.21 79.89C117.92 79.79 117.58 79.74 117.19 79.74H115.54V77.47H118.77V76.86H114.68V83.83H117.34C117.65 83.83 117.93 83.78 118.18 83.69C118.44 83.6 118.66 83.46 118.85 83.28C119.04 83.1 119.19 82.88 119.29 82.62C119.4 82.36 119.45 82.06 119.45 81.71C119.45 81.43 119.41 81.17 119.32 80.93C119.23 80.69 119.09 80.48 118.91 80.3M118.48 82.36C118.41 82.54 118.31 82.69 118.19 82.82C118.07 82.95 117.92 83.04 117.76 83.11C117.6 83.17 117.42 83.21 117.23 83.21H115.54V80.34H117.1C117.3 80.34 117.49 80.37 117.67 80.42C117.85 80.47 118.01 80.55 118.14 80.66C118.28 80.77 118.39 80.91 118.47 81.09C118.55 81.27 118.59 81.48 118.59 81.73C118.59 81.98 118.55 82.18 118.48 82.36ZM128.69 76.84H127.81V83.2H125.31V76.84H124.44V83.2H121.9V76.84H121.05V83.81H128.71V85.52H129.39V83.2H128.68V76.84H128.69ZM131.84 80.44H134.69V79.81H131.84V77.51H135.23V76.85H130.98V83.82H135.4V83.16H131.85V80.45L131.84 80.44ZM140.97 83.06C140.81 83.09 140.66 83.12 140.51 83.14C140.36 83.16 140.22 83.18 140.08 83.18C139.94 83.19 139.83 83.2 139.74 83.2C139.28 83.2 138.91 83.13 138.62 82.98C138.33 82.83 138.1 82.63 137.93 82.38C137.76 82.12 137.64 81.83 137.58 81.48C137.51 81.14 137.48 80.77 137.48 80.36C137.48 79.91 137.53 79.49 137.62 79.13C137.71 78.76 137.85 78.45 138.03 78.2C138.21 77.94 138.45 77.75 138.73 77.61C139.01 77.48 139.34 77.41 139.72 77.41C139.94 77.41 140.17 77.43 140.42 77.46C140.67 77.49 140.94 77.55 141.22 77.65L141.4 77.01C141.19 76.94 140.94 76.87 140.64 76.81C140.35 76.75 140.01 76.72 139.63 76.72C139.22 76.72 138.86 76.78 138.55 76.89C138.24 77 137.97 77.15 137.75 77.34C137.52 77.53 137.34 77.74 137.18 77.99C137.03 78.23 136.91 78.49 136.81 78.76C136.72 79.03 136.65 79.31 136.62 79.58C136.59 79.85 136.56 80.12 136.56 80.37C136.56 80.89 136.61 81.37 136.72 81.81C136.83 82.24 137 82.62 137.24 82.93C137.48 83.24 137.79 83.48 138.17 83.65C138.55 83.82 139.02 83.91 139.58 83.91C139.74 83.91 139.91 83.91 140.1 83.88C140.28 83.86 140.46 83.84 140.64 83.81C140.82 83.78 140.99 83.75 141.14 83.71C141.29 83.67 141.44 83.63 141.56 83.58L141.4 82.97C141.26 83.01 141.12 83.05 140.96 83.08M142.83 77.53H145.07V83.83H145.92V77.53H148.16V76.85H142.83V77.53ZM154.21 80.96C154.12 80.79 154 80.64 153.86 80.5C153.71 80.36 153.53 80.25 153.29 80.18C153.65 80 153.9 79.77 154.04 79.49C154.18 79.21 154.25 78.93 154.25 78.64C154.25 78.38 154.21 78.15 154.12 77.93C154.03 77.71 153.91 77.53 153.74 77.36C153.57 77.2 153.36 77.08 153.1 76.99C152.84 76.9 152.54 76.86 152.2 76.86H149.69V83.83H152.47C152.73 83.83 152.99 83.79 153.22 83.7C153.46 83.61 153.67 83.48 153.85 83.32C154.03 83.15 154.17 82.95 154.28 82.72C154.38 82.48 154.44 82.22 154.44 81.94C154.44 81.8 154.42 81.65 154.39 81.48C154.36 81.31 154.29 81.14 154.21 80.97M150.55 77.53H152.01C152.5 77.53 152.85 77.64 153.06 77.86C153.27 78.08 153.38 78.37 153.38 78.71C153.38 79.05 153.26 79.35 153.03 79.56C152.79 79.77 152.45 79.88 152.01 79.88H150.55V77.52V77.53ZM153.51 82.37C153.46 82.53 153.38 82.67 153.26 82.79C153.15 82.91 153 83 152.83 83.08C152.65 83.15 152.44 83.19 152.19 83.19H150.55V80.56H152.19C152.42 80.56 152.62 80.59 152.8 80.67C152.98 80.75 153.12 80.84 153.24 80.96C153.36 81.08 153.44 81.22 153.5 81.38C153.56 81.54 153.59 81.7 153.59 81.87C153.59 82.04 153.57 82.22 153.51 82.37ZM161.78 79.01C161.69 78.57 161.53 78.19 161.31 77.86C161.09 77.53 160.79 77.26 160.42 77.06C160.05 76.86 159.58 76.76 159.02 76.76C158.46 76.76 158 76.86 157.62 77.06C157.24 77.26 156.93 77.52 156.69 77.86C156.46 78.2 156.29 78.59 156.18 79.03C156.07 79.47 156.02 79.93 156.02 80.42C156.02 80.96 156.07 81.44 156.18 81.87C156.29 82.3 156.46 82.67 156.71 82.98C156.95 83.28 157.26 83.52 157.64 83.69C158.02 83.86 158.48 83.94 159.02 83.94C159.5 83.94 159.91 83.85 160.28 83.67C160.64 83.49 160.95 83.24 161.19 82.93C161.43 82.61 161.61 82.24 161.73 81.8C161.85 81.37 161.91 80.9 161.91 80.39C161.91 79.91 161.86 79.46 161.77 79.02M160.88 81.53C160.8 81.88 160.68 82.18 160.52 82.44C160.36 82.7 160.15 82.9 159.9 83.05C159.65 83.2 159.35 83.27 159.01 83.27C158.26 83.27 157.72 83.03 157.4 82.55C157.07 82.07 156.91 81.36 156.91 80.43C156.91 80.05 156.94 79.68 157 79.32C157.06 78.96 157.17 78.64 157.33 78.36C157.48 78.08 157.7 77.85 157.97 77.68C158.24 77.51 158.59 77.43 159.01 77.43C159.43 77.43 159.77 77.52 160.03 77.7C160.29 77.88 160.49 78.12 160.63 78.41C160.77 78.7 160.87 79.02 160.92 79.37C160.97 79.72 161 80.07 161 80.42C161 80.81 160.96 81.18 160.88 81.53Z" fill="#343839"/>
<path d="M106.86 13.61C107.94 15.46 108.56 17.62 108.56 19.92V38.59H115.93V19.91C115.93 16.18 114.9 12.68 113.11 9.7C110.42 10.24 108.28 11.59 106.85 13.61M95.43 19.29C94.83 26.3 90.09 31.21 83.51 31.21V19.91C83.51 12.99 89.12 7.39 96.03 7.39C96.43 7.39 96.83 7.41 97.22 7.45C98.07 6.16 99.04 4.98 100.14 3.91C101.12 2.96 102.18 2.12 103.32 1.4C101.06 0.51 98.6 0.02 96.02 0.02C85.03 0.02 76.13 8.93 76.13 19.91V38.58H83.5C94.15 38.58 101.82 30.64 102.79 19.29C103.39 12.28 108.18 7.37 115.91 7.37V0C104 0 96.39 7.94 95.42 19.29" fill="#FFB240"/>
<path d="M9.92 56.66C10.62 56.33 11.22 55.83 11.69 55.17C12.21 54.44 12.48 53.61 12.48 52.7C12.48 51.19 12.04 50.18 10.95 49.23C9.89 48.31 7.5 47.89 5.6 47.89C3.27 47.89 1.07 48.3 1.07 48.3L1.46 51.02C1.46 51.02 3.55 50.81 5.24 50.81C6.11 50.81 8.96 50.97 8.96 53.06C8.96 55.31 6.25 55.34 6.23 55.34H3.49V58.18H5.71C9.18 58.18 9.45 60.31 9.45 60.96C9.45 63.65 6.14 63.85 5.12 63.85C3.01 63.85 0.57 63.36 0.57 63.36L0 66.18C0 66.18 2.42 66.82 5.27 66.82C7.06 66.82 12.89 66.39 12.89 60.87C12.89 58.26 10.89 57.01 9.92 56.66ZM37.46 48.06H30.79V66.58H34.3V59.55H37.47C43.59 59.55 43.77 54.27 43.77 53.67C43.77 50.32 41.24 48.07 37.47 48.07M37.21 56.62H34.3V51.02H37.09C39.93 51.02 40.24 52.93 40.24 53.75C40.24 54.81 39.6 56.62 37.21 56.62ZM184.66 55.16H180.96V48.06H177.45V66.58H184.66C188.43 66.58 190.96 64.33 190.96 60.98C190.96 60.38 190.78 55.16 184.66 55.16ZM184.29 63.63H180.96V58.03H184.4C186.79 58.03 187.43 59.83 187.43 60.9C187.43 61.72 187.12 63.63 184.28 63.63M54.04 53.45L51.96 58.82L49.93 53.64L47.66 48.06H43.98L50.18 62.27C50.12 62.39 49.98 62.68 49.83 62.96C49.51 63.57 49.06 64.19 48.14 64.22H48.08C47.57 64.22 46.15 64.05 46.15 64.05L45.83 66.55C45.83 66.55 47.33 66.87 47.76 66.91C48.17 66.95 48.51 66.96 48.78 66.96C49.46 66.94 50.05 66.83 50.54 66.62C51.02 66.41 51.46 66.1 51.83 65.71C52.2 65.32 52.54 64.83 52.85 64.25C53.15 63.69 53.47 63.04 53.8 62.31L59.79 48.05H56.15L54.04 53.44V53.45ZM68.31 55.32H64.89V51.01H72.97V48.06H61.38V66.58H68.22C74.43 66.58 74.61 61.6 74.61 61.03C74.61 59.31 74 55.32 68.31 55.32ZM70.23 63.01C69.66 63.46 68.9 63.68 67.96 63.68H64.89V58.19H68.13C69.23 58.19 70 58.45 70.42 58.97C70.85 59.49 71.07 60.18 71.07 61.01C71.07 61.9 70.79 62.57 70.23 63.02M162.18 52.07C161.62 51.3 160.8 50.63 159.77 50.08C158.76 49.55 157.45 49.22 155.87 49.1V48.07H152.33V49.1C150.73 49.22 149.4 49.57 148.39 50.15C147.36 50.74 146.53 51.44 145.94 52.23C145.35 53.02 144.94 53.86 144.73 54.74C144.52 55.61 144.41 56.39 144.41 57.08C144.41 57.93 144.51 58.83 144.71 59.75C144.91 60.68 145.31 61.55 145.89 62.35C146.47 63.15 147.3 63.84 148.36 64.4C149.39 64.94 150.73 65.26 152.35 65.34V66.58H155.86V65.33C157.37 65.19 158.63 64.86 159.61 64.35C160.62 63.82 161.43 63.16 162.03 62.39C162.63 61.62 163.05 60.76 163.29 59.84C163.52 58.93 163.64 58 163.64 57.07C163.64 56.28 163.54 55.43 163.34 54.55C163.14 53.67 162.75 52.83 162.19 52.06M152.37 62.45C151.61 62.35 150.95 62.17 150.41 61.92C149.84 61.64 149.37 61.28 149.02 60.84C148.67 60.4 148.41 59.87 148.25 59.26C148.09 58.65 148.01 57.96 148.01 57.2C148.01 56.5 148.09 55.83 148.25 55.22C148.41 54.62 148.67 54.07 149.03 53.6C149.39 53.13 149.86 52.74 150.42 52.45C150.95 52.17 151.6 52 152.36 51.92V62.44L152.37 62.45ZM159.11 60.87C158.47 61.76 157.38 62.28 155.88 62.42V51.95C156.67 52.03 157.34 52.22 157.87 52.51C158.43 52.82 158.88 53.22 159.22 53.69C159.55 54.17 159.79 54.72 159.92 55.32C160.05 55.93 160.12 56.57 160.12 57.22C160.12 58.71 159.78 59.93 159.11 60.86M20.84 47.89L12.73 66.57H16.52L17.9 63.02H24.16L25.55 66.57H29.43L21.25 47.89H20.83H20.84ZM19.02 60.16L21.03 55.02L23.05 60.16H19.03H19.02ZM135.96 58.46H141.49V55.51H135.96V51.01H142.41V48.06H132.46V66.58H142.59V63.63H135.97V58.47L135.96 58.46ZM125.71 55.4H118.38V48.06H114.87V66.58H118.38V58.36H125.71V66.58H129.22V48.06H125.71V55.4ZM163.74 51.01H167.68V66.58H171.19V51.01H175.18V48.06H163.74V51.01ZM107.32 57.05C108.05 56.62 108.45 55.91 108.81 55.26C109.63 53.75 111.97 48.06 111.97 48.06H108.49C108.49 48.06 106.49 53.01 106.04 53.97C105.41 55.3 104.96 55.63 103.74 55.63H102.67V48.07H99.22V55.63H97.8C96.58 55.63 96.13 55.31 95.5 53.97C95.05 53.01 93.05 48.06 93.05 48.06H89.57C89.57 48.06 91.91 53.76 92.73 55.26C93.09 55.92 93.48 56.63 94.22 57.05C93.33 57.49 92.81 58.25 92.47 58.87C91.65 60.37 89.04 66.57 89.04 66.57H92.78C92.78 66.57 95.05 61.12 95.5 60.17C96.12 58.85 96.52 58.57 97.76 58.57H99.22V66.57H102.67V58.57H103.79C105.03 58.57 105.43 58.85 106.05 60.17C106.5 61.13 108.77 66.57 108.77 66.57H112.52C112.52 66.57 109.91 60.37 109.09 58.87C108.75 58.24 108.22 57.49 107.34 57.05M80.83 58.46H86.36V55.51H80.83V51.01H87.27V48.06H77.32V66.58H86.57L87.84 63.63H80.83V58.47V58.46Z" fill="#36A95B"/>
</g>
</g>
<defs>
<clipPath id="clip0_108_7">
<rect width="190.95" height="85.55" fill="white"/>
</clipPath>
</defs>
</svg>
